<?xml version="1.0" encoding="UTF-8"?><svg id="uuid-cc567d2c-eb63-4163-9237-6a198c244b33" xmlns="http://www.w3.org/2000/svg" width="24" height="24" viewBox="0 0 24 24"><path d="m19,15h0c0,3.87-3.13,7-7,7h0c-3.87,0-7-3.13-7-7h0c0-3.18,2.11-5.85,5-6.71V2h4v6.29c1.13.33,2.14.95,2.95,1.76,1.27,1.27,2.05,3.01,2.05,4.95Z" fill="none" stroke="#000" stroke-linecap="round" stroke-linejoin="round" stroke-width="2"/><line x1="16" y1="2" x2="14" y2="2" fill="none" stroke="#000" stroke-linecap="round" stroke-linejoin="round" stroke-width="2"/><line x1="10" y1="2" x2="8" y2="2" fill="none" stroke="#000" stroke-linecap="round" stroke-linejoin="round" stroke-width="2"/><path d="m12,11l-1.91,3.18c-.61,1.02-.31,2.34.67,3h0c.75.5,1.72.5,2.47,0h0c.99-.66,1.29-1.98.67-3l-1.91-3.18Z" fill="none" stroke="#000" stroke-linecap="round" stroke-linejoin="round" stroke-width="2"/></svg>