<?xml version="1.0" encoding="UTF-8"?><svg id="uuid-51c99536-ab62-48ee-bac9-ea53fe509945" xmlns="http://www.w3.org/2000/svg" width="24" height="24" viewBox="0 0 24 24"><path d="m8,21c-1.1,0-2-.9-2-2V5c0-1.1-.9-2-2-2s-2,.9-2,2v3h4" fill="none" stroke="#000" stroke-linecap="round" stroke-linejoin="round" stroke-width="2"/><path d="m8,21h4" fill="none" stroke="#000" stroke-linecap="round" stroke-linejoin="round" stroke-width="2"/><path d="m20,11v-6c0-1.1-.9-2-2-2H4" fill="none" stroke="#000" stroke-linecap="round" stroke-linejoin="round" stroke-width="2"/><path d="m19,19c1.1,0,2-.9,2-2s-.9-2-2-2-2,.9-2,2,.9,2,2,2Z" fill="none" stroke="#000" stroke-linecap="round" stroke-linejoin="round" stroke-width="2"/><path d="m16,22c0-1.66,1.34-3,3-3s3,1.34,3,3" fill="none" stroke="#000" stroke-linecap="round" stroke-linejoin="round" stroke-width="2"/></svg>