<?xml version="1.0" encoding="UTF-8"?><svg id="uuid-fe2e3d90-72a1-42e1-9f8e-51c0aedba07d" xmlns="http://www.w3.org/2000/svg" width="24" height="24" viewBox="0 0 24 24"><path d="m8,21h12c1.1,0,2-.9,2-2v-2h-12v2c0,1.1-.9,2-2,2s-2-.9-2-2V5c0-1.1-.9-2-2-2s-2,.9-2,2v3h4" fill="none" stroke="#000" stroke-linecap="round" stroke-linejoin="round" stroke-width="2"/><path d="m20,17V5c0-1.1-.9-2-2-2H4" fill="none" stroke="#000" stroke-linecap="round" stroke-linejoin="round" stroke-width="2"/><path d="m17,9.2c0-1.2-1-2.2-2.2-2.2-.8,0-1.4.3-1.8.9-.4-.6-1-.9-1.8-.9-1.2,0-2.2,1-2.2,2.2,0,.6.3,1.2.7,1.6h0c1.3,1.3,3.3,3.2,3.3,3.2,0,0,2-1.9,3.3-3.1h0c.4-.4.7-1,.7-1.7Z" fill="none" stroke="#000" stroke-linecap="round" stroke-linejoin="round" stroke-width="2"/></svg>