<?xml version="1.0" encoding="UTF-8"?><svg id="uuid-af862129-12ff-4050-af17-4fdf0a02b9f9" xmlns="http://www.w3.org/2000/svg" width="24" height="24" viewBox="0 0 24 24"><path d="m8,21c-1.1,0-2-.9-2-2V5c0-1.1-.9-2-2-2s-2,.9-2,2v3h4" fill="none" stroke="#000" stroke-linecap="round" stroke-linejoin="round" stroke-width="2"/><path d="m8,21h2" fill="none" stroke="#000" stroke-linecap="round" stroke-linejoin="round" stroke-width="2"/><path d="m20,12v-7c0-1.1-.9-2-2-2H4" fill="none" stroke="#000" stroke-linecap="round" stroke-linejoin="round" stroke-width="2"/><path d="m13,18.8s1.64-3.21,4.5-3.21,4.5,3.21,4.5,3.21c0,0-1.64,3.21-4.5,3.21s-4.5-3.21-4.5-3.21Z" fill="none" stroke="#000" stroke-linecap="round" stroke-linejoin="round" stroke-width="2"/><path d="m17.5,19.3c.28,0,.5-.22.5-.5s-.22-.5-.5-.5-.5.22-.5.5.22.5.5.5Z" fill="none" stroke="#000" stroke-linecap="round" stroke-linejoin="round" stroke-width="1.56"/></svg>