<svg id="uuid-2bdbb167-0067-4f0f-9413-f4905a1eb9df" xmlns="http://www.w3.org/2000/svg" width="24" height="24" viewBox="0 0 24 24">
	<path d="m19,15h0c0,3.87-3.13,7-7,7h0c-3.87,0-7-3.13-7-7h0c0-3.18,2.11-5.85,5-6.71V2h4v6.29c1.13.33,2.14.95,2.95,1.76,1.27,1.27,2.05,3.01,2.05,4.95Z" />
	<line x1="16" y1="2" x2="14" y2="2" />
	<line x1="10" y1="2" x2="8" y2="2" />
	<path d="m16,14c0-1.66-1.79-3-4-3s-4,1.34-4,3c0,.89.52,1.67,1.33,2.22l.67,1.78h4l.67-1.78c.81-.55,1.33-1.34,1.33-2.22Z" />
	<circle cx="11" cy="14" r="0.1" />
	<circle cx="13" cy="14" r="0.1" />
</svg>
